PathFileType	4	(X/Y/Z)	G:\GRF\jawan data\CompiledGRF\03. Mohit Kumar\0231~ac~Walking 03_markers.trc
DataRate	CameraRate	NumFrames	NumMarkers	Units	OrigDataRate	OrigDataStartFrame	OrigNumFrames
100.000000	100.000000	12	18	mm	100.000000	378	1010
Frame#	Time	c7			r should			l should			sacrum			r asis			r bar 1			r knee 1			r bar 2			r mall			r heel			r met			l asis			l bar 1			l knee 1			l bar 2			l mall			l heel			l met			
		X1	Y1	Z1	X2	Y2	Z2	X3	Y3	Z3	X4	Y4	Z4	X5	Y5	Z5	X6	Y6	Z6	X7	Y7	Z7	X8	Y8	Z8	X9	Y9	Z9	X10	Y10	Z10	X11	Y11	Z11	X12	Y12	Z12	X13	Y13	Z13	X14	Y14	Z14	X15	Y15	Z15	X16	Y16	Z16	X17	Y17	Z17	X18	Y18	Z18	

379	3.78	-1273.955200195313	1502.94091796875	247.4777679443359	-1167.721069335938	1454.317260742188	409.2158813476563	-1209.59423828125	1449.46435546875	72.09437561035156	-1275.713500976563	1039.34716796875	223.7605590820313	-1108.739135742188	1004.978881835938	373.4282836914063	-1249.10986328125	605.966796875	427.5973510742188	-1238.49267578125	515.7070922851563	389.9606018066406	-1475.410400390625	289.2365417480469	398.3414001464844	-1537.795043945313	169.8773651123047	337.5554504394531	-1599.561767578125	185.9021911621094	284.0957641601563	-1460.28857421875	46.6861572265625	325.0093078613281	-1074.439086914063	1028.126098632813	126.8551940917969	-1021.373168945313	608.910888671875	60.77027130126953	-998.0443115234375	530.1683959960938	122.0439682006836	-1008.096435546875	247.7188415527344	75.09156036376953	-1005.592834472656	78.00790405273438	146.0179595947266	-1069.52978515625	39.60824584960938	192.8630828857422	-859.7869873046875	45.54185485839844	181.3184051513672	
380	3.79	-1264.513916015625	1503.72314453125	246.1224822998047	-1158.337768554688	1455.849365234375	408.1386108398438	-1199.183227539063	1450.7685546875	70.94572448730469	-1265.80029296875	1040.3349609375	222.5771636962891	-1102.409423828125	1005.641845703125	372.2909240722656	-1233.29296875	604.6157836914063	428.4994506835938	-1220.745849609375	514.4152221679688	392.0441284179688	-1461.2744140625	293.3240051269531	398.9371337890625	-1525.847412109375	175.9245452880859	337.8692626953125	-1584.912841796875	194.6355285644531	283.8729248046875	-1457.310668945313	47.60602188110352	324.5942993164063	-1064.548461914063	1029.478515625	125.3246841430664	-1015.928894042969	608.4842529296875	59.60487747192383	-992.6522216796875	529.6309204101563	120.9159622192383	-1005.38623046875	247.4824829101563	74.83147430419922	-1005.126953125	77.82219696044922	146.1267242431641	-1069.501953125	39.71380996704102	192.8199005126953	nan	nan	nan	
381	3.8	-1254.947387695313	1504.45458984375	244.7410278320313	-1149.3408203125	1457.203247070313	407.2077941894531	-1188.715698242188	1452.037841796875	69.90776062011719	-1255.893920898438	1041.0830078125	221.2158813476563	nan	nan	nan	-1217.197875976563	603.1272583007813	429.5540466308594	-1202.915161132813	513.1757202148438	393.8738403320313	-1446.126708984375	297.1141967773438	399.5443420410156	-1513.197143554688	182.1802520751953	338.0443420410156	-1570.490844726563	203.7108764648438	283.9052429199219	nan	nan	nan	-1054.13720703125	1030.712768554688	124.0312423706055	-1011.215698242188	607.9942016601563	58.37385940551758	-987.9720458984375	528.860595703125	119.934326171875	-1002.933471679688	247.0841827392578	74.66725921630859	-1004.855163574219	77.73494720458984	146.2564544677734	-1069.448852539063	39.69742584228516	192.8633728027344	-860.384521484375	46.2196159362793	181.0641784667969	
382	3.81	-1245.354370117188	1505.312622070313	243.3753662109375	-1140.564208984375	1458.32470703125	406.3994750976563	-1178.096557617188	1453.2119140625	68.89168548583984	-1246.3291015625	1041.680786132813	219.6804351806641	-1077.204711914063	1006.89208984375	368.2691955566406	-1200.832153320313	601.6356811523438	430.6316528320313	-1184.84423828125	512.3106689453125	395.4415588378906	-1430.236083984375	300.9456176757813	400.1229553222656	-1499.767822265625	188.5846557617188	338.1539611816406	-1556.01171875	212.9901580810547	283.9434814453125	-1449.60400390625	53.39448547363281	321.2953796386719	-1044.369018554688	1031.672485351563	122.6266937255859	-1006.600158691406	607.6468505859375	57.26445007324219	-983.387939453125	528.4283447265625	119.1306381225586	-1000.721923828125	246.0479431152344	74.49203491210938	-1004.607299804688	77.63370513916016	146.3558044433594	-1069.348876953125	39.60200119018555	192.9600524902344	-860.3853149414063	46.11109924316406	180.9128723144531	
383	3.82	-1235.85791015625	1506.300415039063	242.091796875	-1131.995971679688	1459.250244140625	405.719970703125	-1167.340209960938	1454.30126953125	67.90717315673828	-1237.043823242188	1042.065673828125	218.1247406005859	-1070.326293945313	1007.207397460938	367.2189636230469	-1184.149780273438	600.2757568359375	431.6249389648438	-1166.156127929688	511.5772399902344	396.8010864257813	-1413.931030273438	305.0780029296875	400.5982360839844	-1485.991821289063	195.4735260009766	337.9650573730469	-1541.164916992188	221.9472961425781	283.7638854980469	nan	nan	nan	-1034.305053710938	1032.373168945313	121.3820419311523	-1002.121215820313	607.4882202148438	56.27294921875	-979.6559448242188	528.0809326171875	118.5542831420898	-998.6432495117188	244.7828369140625	74.20777130126953	-1004.456176757813	77.46699523925781	146.4541015625	-1069.447998046875	39.65397262573242	193.0023040771484	-860.2863159179688	45.96565628051758	180.8994750976563	
384	3.83	-1226.279663085938	1507.33154296875	240.7203521728516	-1123.692626953125	1460.016479492188	405.1365356445313	-1156.482177734375	1455.326049804688	66.96823120117188	-1228.088989257813	1042.332153320313	216.5401458740234	-1062.320678710938	1007.930969238281	366.3567199707031	-1167.332153320313	599.3085327148438	432.4434204101563	-1147.096923828125	511.2067565917969	398.132568359375	-1397.404296875	309.5856628417969	400.8186340332031	-1471.9580078125	202.5181121826172	337.4818115234375	-1525.734497070313	229.6521301269531	282.8150939941406	-1418.342651367188	68.56930541992188	327.950927734375	-1024.790283203125	1032.889892578125	120.1505355834961	-997.2713012695313	607.4719848632813	55.3101806640625	-975.6943969726563	527.7987060546875	117.9393692016602	-997.19189453125	244.2445983886719	73.92534637451172	-1004.443786621094	77.44370269775391	146.4923858642578	-1069.550903320313	39.70651245117188	193.0273132324219	-860.2109375	45.77722930908203	181.0263671875	
385	3.84	-1216.920043945313	1508.44140625	239.3924407958984	-1115.503173828125	1460.592041015625	404.63427734375	-1145.62109375	1456.273681640625	66.10781097412109	-1219.3935546875	1042.559936523438	215.0756378173828	-1054.192749023438	1008.862854003906	365.5601501464844	-1150.422607421875	598.9191284179688	432.9696960449219	-1127.814575195313	511.497314453125	399.4281311035156	-1380.490966796875	314.2655944824219	400.7705078125	-1457.206298828125	209.2091674804688	336.7085571289063	-1509.931030273438	235.5879669189453	280.7962951660156	-1405.764282226563	72.30319213867188	330.9219665527344	-1016.048461914063	1033.6455078125	118.7993927001953	-992.3101196289063	607.58349609375	54.62346649169922	-971.8003540039063	527.502197265625	117.3134002685547	-996.1515502929688	244.3043823242188	73.67803955078125	-1004.296752929688	77.42577362060547	146.4855041503906	-1069.5537109375	39.72078323364258	193.0744781494141	-860.163330078125	45.60986328125	180.9913482666016	
386	3.85	-1207.773193359375	1509.65185546875	238.1624298095703	-1107.497192382813	1461.003051757813	404.1753540039063	-1134.903930664063	1457.180908203125	65.33987426757813	-1210.953491210938	1042.906372070313	213.9340667724609	-1045.806030273438	1010.044189453125	364.6104736328125	-1133.518798828125	599.1358032226563	433.2625732421875	-1108.3818359375	512.5731201171875	400.4803161621094	-1363.223022460938	318.9410705566406	400.4618530273438	-1441.232421875	215.2313690185547	335.6279602050781	-1493.333251953125	240.2547454833984	278.1088562011719	-1390.2978515625	77.67716979980469	333.6347351074219	-1007.923095703125	1034.41552734375	117.3129119873047	-987.5685424804688	607.6873779296875	54.10464859008789	-968.6239013671875	527.248779296875	116.8007354736328	-995.2952270507813	244.4126892089844	73.38925933837891	-1004.06005859375	77.35128021240234	146.5400848388672	-1069.720947265625	39.80350494384766	193.11328125	-859.7468872070313	45.3051643371582	181.0117492675781	
387	3.86	-1198.499633789063	1510.871948242188	237.0089874267578	-1099.560302734375	1461.374267578125	403.7488098144531	-1124.15673828125	1458.09814453125	64.6312255859375	-1202.662963867188	1043.53759765625	213.1569671630859	-1036.739990234375	1011.498352050781	363.2892456054688	-1116.450073242188	599.8858032226563	433.8369445800781	-1088.712890625	514.1302490234375	401.7054443359375	-1345.39013671875	323.1598510742188	399.9328308105469	-1424.071044921875	220.4528045654297	334.6766662597656	-1475.490844726563	244.0352935791016	275.5194396972656	-1373.434448242188	82.70680999755859	336.2526550292969	-1000.324157714844	1034.624389648438	115.7905197143555	-982.9132080078125	607.6492309570313	53.67645645141602	-965.6787109375	527.0918579101563	116.1847152709961	-994.7879028320313	244.4328155517578	73.13001251220703	-1004.093505859375	77.36858367919922	146.5977172851563	-1069.750366210938	39.73959350585938	193.1652679443359	-859.59375	45.14582443237305	180.9312744140625	
388	3.87	-1189.363037109375	1512.175170898438	235.8746032714844	-1091.666870117188	1461.73046875	403.3003234863281	-1113.421508789063	1459.047119140625	64.00215148925781	-1194.576416015625	1044.691040039063	212.6914215087891	-1027.751831054688	1013.018615722656	362.0335388183594	-1098.748901367188	600.947998046875	434.6515502929688	-1069.408203125	516.2630004882813	402.9661254882813	-1327.113891601563	326.8328247070313	399.2809753417969	-1405.701416015625	224.4762573242188	333.7975158691406	-1456.660766601563	246.8633117675781	273.4132995605469	-1354.937866210938	86.62969207763672	339.2013244628906	-992.7916259765625	1034.9541015625	114.4276733398438	-978.545654296875	607.7538452148438	53.32474899291992	-962.7142333984375	526.7617797851563	115.4857025146484	-994.22216796875	244.2559967041016	72.7734375	-1004.098876953125	77.29891204833984	146.6414337158203	-1069.5908203125	39.6059455871582	193.2516784667969	-859.6511840820313	45.09000396728516	180.8953094482422	
389	3.88	-1180.316650390625	1513.488403320313	234.7814636230469	-1083.957153320313	1462.069702148438	402.858154296875	-1103.005981445313	1460.104248046875	63.4593505859375	-1186.584106445313	1046.252319335938	212.3971710205078	-1018.645263671875	1014.838806152344	360.6502990722656	-1081.53271484375	602.4375610351563	435.41455078125	-1050.377197265625	518.636474609375	404.1719360351563	-1308.583251953125	330.0576782226563	398.6604614257813	-1386.780395507813	227.4263763427734	333.1617431640625	-1437.375732421875	248.4899291992188	271.6272888183594	-1335.432250976563	90.33798980712891	341.6359558105469	-985.4065551757813	1035.52978515625	112.9791870117188	-974.7026977539063	607.6946411132813	52.77543640136719	-960.052978515625	526.3316650390625	114.9767074584961	-993.4451904296875	243.9994506835938	72.51316833496094	-1004.005187988281	77.27558135986328	146.7383117675781	-1069.427001953125	39.49091720581055	193.356689453125	-859.2420043945313	44.73500823974609	181.0055999755859	
390	3.89	-1171.410034179688	1514.767944335938	233.76611328125	-1076.2509765625	1462.414306640625	402.3753356933594	-1092.866088867188	1461.2900390625	62.94049453735352	-1178.562622070313	1047.99658203125	212.1626434326172	-1009.650451660156	1016.970031738281	359.3321533203125	-1064.347534179688	604.0130004882813	436.2280578613281	-1031.655639648438	521.07763671875	405.1244506835938	-1289.675659179688	332.6347961425781	398.1690063476563	-1367.344116210938	229.4323120117188	332.7314147949219	-1417.860107421875	248.9457855224609	270.0863037109375	-1314.419555664063	93.64940643310547	343.4152526855469	-978.0604858398438	1036.438720703125	111.6026611328125	-971.154296875	607.4395751953125	52.34146499633789	-957.4879150390625	525.8846435546875	114.5400314331055	-992.4412841796875	243.7466430664063	72.33037567138672	-1003.8857421875	77.2630615234375	146.8417510986328	-1069.3017578125	39.46384811401367	193.4768524169922	-859.0873413085938	44.61137390136719	181.0333709716797	
